 <svg display="none" xmlns="http://www.w3.org/2000/svg">
    <symbol id="mail" viewBox="0 0 24 24">
      <path
        d="M19.875 4.5H4.125C3.08947 4.5 2.25 5.33947 2.25 6.375V17.625C2.25 18.6605 3.08947 19.5 4.125 19.5H19.875C20.9105 19.5 21.75 18.6605 21.75 17.625V6.375C21.75 5.33947 20.9105 4.5 19.875 4.5Z"
        stroke-width="2" stroke-linecap="round" stroke-linejoin="round" />
      <path d="M5.25 7.5L12 12.75L18.75 7.5" stroke-width="2" stroke-linecap="round"
        stroke-linejoin="round" />
    </symbol>
    <symbol id="telegram" viewBox="0 0 24 25">
      <path
        d="M22.9373 4.64062L19.6174 19.9154C19.3669 20.9934 18.7137 21.2618 17.7855 20.7539L12.727 17.1173L10.2862 19.4075C10.0161 19.671 9.79016 19.8914 9.26958 19.8914L9.633 14.8653L19.0084 6.60027C19.416 6.24572 18.92 6.04927 18.3749 6.40383L6.78454 13.5238L1.7948 12.0001C0.70944 11.6695 0.689795 10.9412 2.02072 10.4333L21.5376 3.09781C22.4413 2.76721 23.232 3.29425 22.9373 4.64062Z" />
    </symbol>
    <symbol id="facebook" viewBox="0 0 24 25">
      <path
        d="M20.6429 1.00195H3.35714C2.73199 1.00195 2.13244 1.25029 1.69039 1.69234C1.24834 2.13439 1 2.73394 1 3.3591L1 20.6448C1 21.27 1.24834 21.8695 1.69039 22.3116C2.13244 22.7536 2.73199 23.002 3.35714 23.002H10.0971V15.5224H7.00335V12.002H10.0971V9.31874C10.0971 6.26673 11.9141 4.58088 14.697 4.58088C16.0297 4.58088 17.4234 4.81856 17.4234 4.81856V7.8141H15.8878C14.3748 7.8141 13.9029 8.75302 13.9029 9.71601V12.002H17.2805L16.7403 15.5224H13.9029V23.002H20.6429C21.268 23.002 21.8676 22.7536 22.3096 22.3116C22.7517 21.8695 23 21.27 23 20.6448V3.3591C23 2.73394 22.7517 2.13439 22.3096 1.69234C21.8676 1.25029 21.268 1.00195 20.6429 1.00195Z" />
    </symbol>
    <symbol id="youtube-light" viewBox="0 0 24 25">
      <path
        d="M23.4776 6.74308C23.2024 5.70537 22.5988 4.82704 21.5647 4.55079C19.6906 4.04787 12 4.00183 12 4.00183C12 4.00183 4.30941 4.04787 2.43529 4.55079C1.40118 4.82704 0.801176 5.70537 0.522353 6.74308C0.0211765 8.62371 0 12.5018 0 12.5018C0 12.5018 0.0211765 16.38 0.522353 18.2606C0.797647 19.2983 1.40118 20.1766 2.43529 20.4529C4.30941 20.9558 12 21.0018 12 21.0018C12 21.0018 19.6906 20.9558 21.5647 20.4529C22.5988 20.1766 23.2024 19.2983 23.4776 18.2606C23.9788 16.38 24 12.5018 24 12.5018C24 12.5018 23.9788 8.62371 23.4776 6.74308Z" />
      <path d="M16 12.5018L10 9.00183V16.0018" fill="white" />
    </symbol>
    <symbol id="youtube-dark" viewBox="0 0 24 25">
      <path
        d="M23.4776 6.74308C23.2024 5.70537 22.5988 4.82704 21.5647 4.55079C19.6906 4.04787 12 4.00183 12 4.00183C12 4.00183 4.30941 4.04787 2.43529 4.55079C1.40118 4.82704 0.801176 5.70537 0.522353 6.74308C0.0211765 8.62371 0 12.5018 0 12.5018C0 12.5018 0.0211765 16.38 0.522353 18.2606C0.797647 19.2983 1.40118 20.1766 2.43529 20.4529C4.30941 20.9558 12 21.0018 12 21.0018C12 21.0018 19.6906 20.9558 21.5647 20.4529C22.5988 20.1766 23.2024 19.2983 23.4776 18.2606C23.9788 16.38 24 12.5018 24 12.5018C24 12.5018 23.9788 8.62371 23.4776 6.74308Z" />
      <path d="M16 12.5018L10 9.00183V16.0018" fill="#3C2F2F" />
    </symbol>
    <symbol id="instagram" viewBox="0 0 24 25">
      <path
        d="M12.0025 6.36143C8.88098 6.36143 6.36319 8.87978 6.36319 12.002C6.36319 15.1241 8.88098 17.6425 12.0025 17.6425C15.1239 17.6425 17.6417 15.1241 17.6417 12.002C17.6417 8.87978 15.1239 6.36143 12.0025 6.36143ZM12.0025 15.669C9.98528 15.669 8.3362 14.0245 8.3362 12.002C8.3362 9.97942 9.98037 8.33488 12.0025 8.33488C14.0245 8.33488 15.6687 9.97942 15.6687 12.002C15.6687 14.0245 14.0196 15.669 12.0025 15.669ZM19.1877 6.1307C19.1877 6.86216 18.5988 7.44634 17.8724 7.44634C17.1411 7.44634 16.5571 6.85725 16.5571 6.1307C16.5571 5.40416 17.146 4.81507 17.8724 4.81507C18.5988 4.81507 19.1877 5.40416 19.1877 6.1307ZM22.9227 7.46597C22.8393 5.70362 22.4368 4.14253 21.146 2.85635C19.8601 1.57018 18.2994 1.16763 16.5374 1.07927C14.7215 0.976181 9.27853 0.976181 7.46258 1.07927C5.70552 1.16273 4.14479 1.56527 2.85399 2.85145C1.56319 4.13762 1.16564 5.69871 1.0773 7.46106C0.974233 9.27742 0.974233 14.7216 1.0773 16.5379C1.16074 18.3003 1.56319 19.8614 2.85399 21.1476C4.14479 22.4337 5.70061 22.8363 7.46258 22.9246C9.27853 23.0277 14.7215 23.0277 16.5374 22.9246C18.2994 22.8412 19.8601 22.4386 21.146 21.1476C22.4319 19.8614 22.8344 18.3003 22.9227 16.5379C23.0258 14.7216 23.0258 9.28233 22.9227 7.46597ZM20.5767 18.4868C20.1939 19.449 19.4528 20.1903 18.4859 20.5781C17.038 21.1525 13.6025 21.0199 12.0025 21.0199C10.4025 21.0199 6.96196 21.1476 5.51902 20.5781C4.55705 20.1952 3.81595 19.4539 3.42822 18.4868C2.85399 17.0387 2.9865 13.6023 2.9865 12.002C2.9865 10.4016 2.8589 6.96034 3.42822 5.51707C3.81104 4.55489 4.55215 3.81362 5.51902 3.42581C6.96687 2.85145 10.4025 2.98399 12.0025 2.98399C13.6025 2.98399 17.0429 2.85635 18.4859 3.42581C19.4479 3.80871 20.189 4.54998 20.5767 5.51707C21.1509 6.96525 21.0184 10.4016 21.0184 12.002C21.0184 13.6023 21.1509 17.0436 20.5767 18.4868Z" />
    </symbol>
    <symbol id="web" viewBox="0 0 24 24">
      <path
        d="M11.8 1C8.93566 1 6.18864 2.13785 4.16325 4.16325C2.13785 6.18864 1 8.93566 1 11.8C1 14.6643 2.13785 17.4114 4.16325 19.4368C6.18864 21.4621 8.93566 22.6 11.8 22.6C14.6643 22.6 17.4114 21.4621 19.4368 19.4368C21.4621 17.4114 22.6 14.6643 22.6 11.8C22.6 8.93566 21.4621 6.18864 19.4368 4.16325C17.4114 2.13785 14.6643 1 11.8 1ZM2.332 12.616H5.344C5.392 13.708 5.5444 14.7928 5.8 15.856H3.208C2.72465 14.8371 2.42795 13.7397 2.332 12.616ZM12.616 6.136V2.428C13.7724 2.86747 14.7227 3.72355 15.28 4.828C15.526 5.2444 15.7432 5.6776 15.928 6.124L12.616 6.136ZM16.48 7.756C16.7584 8.8156 16.924 9.9016 16.972 10.996H12.616V7.756H16.48ZM10.984 2.428V6.136H7.672C7.85711 5.68924 8.07366 5.25615 8.32 4.84C8.87496 3.73102 9.82551 2.87039 10.984 2.428ZM10.984 7.756V10.996H6.64C6.688 9.9016 6.8536 8.8156 7.132 7.756H10.984ZM5.344 10.984H2.332C2.42795 9.86031 2.72465 8.76294 3.208 7.744H5.8C5.54391 8.80677 5.3912 9.89182 5.344 10.984ZM6.64 12.616H10.984V15.856H7.132C6.85364 14.7965 6.68872 13.7104 6.64 12.616ZM10.996 17.416V21.124C9.83958 20.6845 8.88933 19.8285 8.332 18.724C8.08566 18.3078 7.86911 17.8748 7.684 17.428L10.996 17.416ZM12.616 21.124V17.476H15.928C15.7429 17.9228 15.5263 18.3558 15.28 18.772C14.7227 19.8765 13.7724 20.7325 12.616 21.172V21.124ZM12.616 15.796V12.556H16.96C16.9113 13.6504 16.7464 14.7365 16.468 15.796H12.616ZM18.268 12.556H21.28C21.184 13.6797 20.8874 14.7771 20.404 15.796H17.8C18.052 14.752 18.2044 13.6876 18.256 12.616L18.268 12.556ZM18.268 10.936C18.213 9.86357 18.0563 8.79879 17.8 7.756H20.392C20.8756 8.776 21.172 9.8728 21.268 10.996L18.268 10.936ZM19.468 6.136H17.32C16.9313 5.04436 16.368 4.02307 15.652 3.112C17.1453 3.78229 18.4423 4.82326 19.42 6.136H19.468ZM7.948 3.112C7.23198 4.02307 6.66865 5.04436 6.28 6.136H4.18C5.15767 4.82326 6.45474 3.78229 7.948 3.112ZM4.168 17.512H6.28C6.66865 18.6036 7.23198 19.6249 7.948 20.536C6.45061 19.8556 5.15314 18.8019 4.18 17.476L4.168 17.512ZM15.64 20.536C16.356 19.6249 16.9193 18.6036 17.308 17.512H19.42C18.4364 18.8072 17.1398 19.8312 15.652 20.488L15.64 20.536Z"
        />
    </symbol>
  </svg>